<?xml version="1.0" encoding="UTF-8" standalone="no"?>
<svg xmlns:svg="http://www.w3.org/2000/svg" xmlns="http://www.w3.org/2000/svg" version="1.1" width="500" height="185">
<!-- Created with the Wikimedia parliament diagram creator (http://tools.wmflabs.org/parliamentdiagram/parliamentinputform.html) -->
<g>
<text x="175" y="175" style="font-size:36px;font-weight:bold;text-align:center;text-anchor:middle;font-family:Helvetica Neue, Helvetica, Arial, sans-serif">159</text>
  <g style="fill:#3E266E" id="Pirate">
    <circle cx="12.24" cy="174.29" r="6"/>
    <circle cx="26.53" cy="174.29" r="6"/>
    <circle cx="40.83" cy="174.29" r="6"/>
    <circle cx="55.13" cy="174.29" r="6"/>
    <circle cx="69.43" cy="174.29" r="6"/>
    <circle cx="83.74" cy="174.29" r="6"/>
    <circle cx="98.06" cy="174.29" r="6"/>
    <circle cx="13.70" cy="157.16" r="6"/>
    <circle cx="28.17" cy="156.93" r="6"/>
    <circle cx="42.69" cy="156.64" r="6"/>
    <circle cx="57.12" cy="157.09" r="6"/>
    <circle cx="71.75" cy="156.76" r="6"/>
    <circle cx="16.91" cy="140.27" r="6"/>
    <circle cx="86.53" cy="156.31" r="6"/>
    <circle cx="31.77" cy="139.87" r="6"/>
    <circle cx="101.15" cy="156.99" r="6"/>
    <circle cx="46.77" cy="139.37" r="6"/>
    <circle cx="61.46" cy="140.32" r="6"/>
    <circle cx="21.83" cy="123.80" r="6"/>
    <circle cx="76.84" cy="139.82" r="6"/>
    <circle cx="37.27" cy="123.32" r="6"/>
    <circle cx="53.02" cy="122.77" r="6"/>
    <circle cx="92.64" cy="139.18" r="6"/>
    <circle cx="28.41" cy="107.92" r="6"/>
    <circle cx="68.08" cy="124.32" r="6"/>
    <circle cx="44.61" cy="107.51" r="6"/>
    <circle cx="107.85" cy="140.73" r="6"/>
    <circle cx="84.55" cy="123.90" r="6"/>
    <circle cx="36.57" cy="92.79" r="6"/>
    <circle cx="61.32" cy="107.09" r="6"/>
    <circle cx="76.85" cy="109.39" r="6"/>
    <circle cx="53.70" cy="92.63" r="6"/>
    <circle cx="101.86" cy="123.50" r="6"/>
    <circle cx="46.24" cy="78.58" r="6"/>
    <circle cx="71.56" cy="92.59" r="6"/>
    <circle cx="94.70" cy="109.42" r="6"/>
    <circle cx="117.86" cy="126.27" r="6"/>
    <circle cx="64.42" cy="78.88" r="6"/>
    <circle cx="87.60" cy="95.81" r="6"/>
    <circle cx="57.32" cy="65.44" r="6"/>
    <circle cx="83.55" cy="79.51" r="6"/>
    <circle cx="113.86" cy="109.83" r="6"/>
    <circle cx="76.63" cy="66.43" r="6"/>
    <circle cx="107.03" cy="96.74" r="6"/>
    <circle cx="69.68" cy="53.49" r="6"/>
    <circle cx="100.12" cy="83.85" r="6"/>
    <circle cx="130.72" cy="114.28" r="6"/>
    <circle cx="97.11" cy="68.06" r="6"/>
    <circle cx="90.17" cy="55.44" r="6"/>
    <circle cx="83.19" cy="42.87" r="6"/>
    <circle cx="128.22" cy="98.65" r="6"/>
    <circle cx="121.22" cy="86.18" r="6"/>
    <circle cx="114.18" cy="73.73" r="6"/>
    <circle cx="97.73" cy="33.69" r="6"/>
    <circle cx="104.87" cy="46.06" r="6"/>
    <circle cx="112.01" cy="58.43" r="6"/>
    <circle cx="145.84" cy="105.30" r="6"/>
    <circle cx="129.49" cy="65.66" r="6"/>
    <circle cx="113.12" cy="26.04" r="6"/>
    <circle cx="136.91" cy="78.02" r="6"/>
    <circle cx="120.54" cy="38.41" r="6"/>
    <circle cx="128.02" cy="50.78" r="6"/>
    <circle cx="144.42" cy="90.38" r="6"/>
    <circle cx="129.22" cy="20.01" r="6"/>
    <circle cx="136.97" cy="32.58" r="6"/>
    <circle cx="145.78" cy="59.77" r="6"/>
    <circle cx="144.87" cy="45.22" r="6"/>
    <circle cx="153.70" cy="72.46" r="6"/>
    <circle cx="162.52" cy="99.74" r="6"/>
    <circle cx="145.85" cy="15.65" r="6"/>
    <circle cx="161.89" cy="85.29" r="6"/>
    <circle cx="153.96" cy="28.65" r="6"/>
    <circle cx="162.72" cy="56.20" r="6"/>
    <circle cx="162.29" cy="41.84" r="6"/>
    <circle cx="162.83" cy="13.02" r="6"/>
    <circle cx="171.16" cy="69.64" r="6"/>
    <circle cx="171.28" cy="26.68" r="6"/>
    <circle cx="180.00" cy="12.14" r="6"/>
    <circle cx="180.00" cy="40.71" r="6"/>
    <circle cx="180.00" cy="55.00" r="6"/>
    <circle cx="180.00" cy="83.57" r="6"/>
    <circle cx="180.00" cy="97.86" r="6"/>
    <circle cx="188.72" cy="26.68" r="6"/>
    <circle cx="188.84" cy="69.64" r="6"/>
    <circle cx="197.17" cy="13.02" r="6"/>
    <circle cx="197.71" cy="41.84" r="6"/>
    <circle cx="197.28" cy="56.20" r="6"/>
    <circle cx="206.04" cy="28.65" r="6"/>
    <circle cx="198.11" cy="85.29" r="6"/>
    <circle cx="214.15" cy="15.65" r="6"/>
    <circle cx="197.48" cy="99.74" r="6"/>
    <circle cx="206.30" cy="72.46" r="6"/>
    <circle cx="215.13" cy="45.22" r="6"/>
    <circle cx="214.22" cy="59.77" r="6"/>
    <circle cx="223.03" cy="32.58" r="6"/>
  </g>
  <g style="fill:#37993C" id="Green">
    <circle cx="230.78" cy="20.01" r="6"/>
    <circle cx="215.58" cy="90.38" r="6"/>
    <circle cx="231.98" cy="50.78" r="6"/>
    <circle cx="239.46" cy="38.41" r="6"/>
    <circle cx="223.09" cy="78.02" r="6"/>
    <circle cx="246.88" cy="26.04" r="6"/>
    <circle cx="230.51" cy="65.66" r="6"/>
    <circle cx="214.16" cy="105.30" r="6"/>
    <circle cx="247.99" cy="58.43" r="6"/>
    <circle cx="255.13" cy="46.06" r="6"/>
    <circle cx="262.27" cy="33.69" r="6"/>
    <circle cx="245.82" cy="73.73" r="6"/>
    <circle cx="238.78" cy="86.18" r="6"/>
    <circle cx="231.78" cy="98.65" r="6"/>
    <circle cx="276.81" cy="42.87" r="6"/>
    <circle cx="269.83" cy="55.44" r="6"/>
    <circle cx="262.89" cy="68.06" r="6"/>
    <circle cx="229.28" cy="114.28" r="6"/>
  </g>
  <g style="fill:#E31E2C" id="Socialist">
    <circle cx="259.88" cy="83.85" r="6"/>
    <circle cx="290.32" cy="53.49" r="6"/>
    <circle cx="252.97" cy="96.74" r="6"/>
    <circle cx="283.37" cy="66.43" r="6"/>
    <circle cx="246.14" cy="109.83" r="6"/>
    <circle cx="276.45" cy="79.51" r="6"/>
    <circle cx="302.68" cy="65.44" r="6"/>
    <circle cx="272.40" cy="95.81" r="6"/>
    <circle cx="295.58" cy="78.88" r="6"/>
    <circle cx="242.14" cy="126.27" r="6"/>
  </g>
  <g style="fill:#494EE3" id="Progress">
    <circle cx="265.30" cy="109.42" r="6"/>
    <circle cx="288.44" cy="92.59" r="6"/>
    <circle cx="313.76" cy="78.58" r="6"/>
    <circle cx="258.14" cy="123.50" r="6"/>
    <circle cx="306.30" cy="92.63" r="6"/>
    <circle cx="283.15" cy="109.39" r="6"/>
    <circle cx="298.68" cy="107.09" r="6"/>
    <circle cx="323.43" cy="92.79" r="6"/>
    <circle cx="275.45" cy="123.90" r="6"/>
    <circle cx="252.15" cy="140.73" r="6"/>
    <circle cx="315.39" cy="107.51" r="6"/>
    <circle cx="291.92" cy="124.32" r="6"/>
    <circle cx="331.59" cy="107.92" r="6"/>
    <circle cx="267.36" cy="139.18" r="6"/>
    <circle cx="306.98" cy="122.77" r="6"/>
    <circle cx="322.73" cy="123.32" r="6"/>
    <circle cx="283.16" cy="139.82" r="6"/>
    <circle cx="338.17" cy="123.80" r="6"/>
    <circle cx="298.54" cy="140.32" r="6"/>
    <circle cx="313.23" cy="139.37" r="6"/>
  </g>
  <g style="fill:#E2AA32" id="Liberal">
    <circle cx="258.85" cy="156.99" r="6"/>
    <circle cx="328.23" cy="139.87" r="6"/>
    <circle cx="273.47" cy="156.31" r="6"/>
    <circle cx="343.09" cy="140.27" r="6"/>
    <circle cx="288.25" cy="156.76" r="6"/>
    <circle cx="302.88" cy="157.09" r="6"/>
    <circle cx="317.31" cy="156.64" r="6"/>
    <circle cx="331.83" cy="156.93" r="6"/>
    <circle cx="346.30" cy="157.16" r="6"/>
  </g>
  <g style="fill:#E251C0" id="Solidarity">
    <circle cx="261.94" cy="174.29" r="6"/>
    <circle cx="276.26" cy="174.29" r="6"/>
    <circle cx="290.57" cy="174.29" r="6"/>
    <circle cx="304.87" cy="174.29" r="6"/>
    <circle cx="319.17" cy="174.29" r="6"/>
    <circle cx="333.47" cy="174.29" r="6"/>
    <circle cx="347.76" cy="174.29" r="6"/>
  </g>
</g>
<g style="font-size: 16px; font-family: Helvetica Neue, Helvetica, Arial, sans-serif">
    <circle cx="385" cy="20" r="6" style="fill:#3E266E"/>
    <text x="400" y="25">Pirate</text>
    
    <circle cx="385" cy="40" r="6" style="fill:#37993C"/>
    <text x="400" y="45">Green</text>
    
    <circle cx="385" cy="60" r="6" style="fill:#E31E2C"/>
    <text x="400" y="65">Socialist</text>
    
    <circle cx="385" cy="80" r="6" style="fill:#494EE3"/>
    <text x="400" y="85">Progress</text>
    
    <circle cx="385" cy="100" r="6" style="fill:#E2AA32"/>
    <text x="400" y="105">Liberal</text>
    
    <circle cx="385" cy="120" r="6" style="fill:#E251C0"/>
    <text x="400" y="125">Solidarity</text>
</g>
</svg>